<svg id="c2" xmlns="http://www.w3.org/2000/svg" xmlns:xlink="http://www.w3.org/1999/xlink" viewBox="0 0 308 308" shape-rendering="geometricPrecision" text-rendering="geometricPrecision" width="308" height="308">
<style><![CDATA[
#c2-s-g1_ts {animation: c2-s-g1_ts__ts 2000ms linear infinite normal forwards}@keyframes c2-s-g1_ts__ts { 0% {transform: translate(154px,154px) scale(1,1);animation-timing-function: cubic-bezier(0.62,0.61,0.755,-0.315)} 50% {transform: translate(154px,154px) scale(1,-1.003181);animation-timing-function: cubic-bezier(0.62,0.61,0.755,-0.315)} 100% {transform: translate(154px,154px) scale(1,1.00318)}}
]]></style>
<defs><linearGradient id="c2-s-path10-fill" x1="-0.492949" y1="-0.113821" x2="0.569834" y2="0.777709" spreadMethod="pad" gradientUnits="objectBoundingBox" gradientTransform="translate(0 0)"><stop id="c2-s-path10-fill-0" offset="0%" stop-color="#bd6513"/><stop id="c2-s-path10-fill-1" offset="100%" stop-color="#ffd871"/></linearGradient><linearGradient id="c2-s-path11-fill" x1="-0.492949" y1="-0.113821" x2="0.569834" y2="0.777709" spreadMethod="pad" gradientUnits="objectBoundingBox" gradientTransform="translate(0 0)"><stop id="c2-s-path11-fill-0" offset="0%" stop-color="#bd6513"/><stop id="c2-s-path11-fill-1" offset="100%" stop-color="#ffd871"/></linearGradient></defs><g id="c2-s-g1_ts" transform="translate(154,154) scale(1,1)"><g id="c2-s-g1" transform="translate(-192.18618,-181.800781)"><g id="c2-s-g2"><g id="c2-s-g3" transform="translate(64.0436 288.505)"><g id="c2-s-g4"><path id="c2-s-path1" d="M146.894531,-17.191406c-48.445312,0-82.824219-28.4375-82.824219-92.199219c0-63.757813,34.378907-92.199219,79.699219-92.199219c28.441407,0,54.378907,9.066406,78.132813,31.253906l15.628906-18.75c-23.753906-22.191406-59.070312-35.941406-96.886719-35.941406-75.324219,0-125.015625,40.628906-125.015625,115.636719C15.628906,-34.378906,65.632812,6.25,143.769531,6.25c37.816407,0,73.132813-13.75,96.886719-35.941406l-15.628906-18.753906c-23.75,22.191406-49.691406,31.253906-78.132813,31.253906Zm0,0" fill="#73e09a"/></g></g></g><g id="c2-s-g5" clip-path="url(#c2-u-eskkwh4dlrc10)"><g id="c2-s-g6"><path id="c2-s-path2" d="M165.839844,28.289062h28.996094v57.992188h-28.996094Zm0,0" fill="#73e09a"/></g><clipPath id="c2-u-eskkwh4dlrc10"><path id="c2-s-path3" d="M165.839844,28.289062h28.332031v57.609376h-28.332031Zm0,0"/></clipPath></g><g id="c2-s-g7" clip-path="url(#c2-u-eskkwh4dlrc15)"><g id="c2-s-g8"><path id="c2-s-path4" d="M214.882812,28.289062h28.996094v57.992188h-28.996094Zm0,0" fill="#73e09a"/></g><clipPath id="c2-u-eskkwh4dlrc15"><path id="c2-s-path5" d="M214.882812,28.289062h28.332032v57.609376h-28.332032Zm0,0"/></clipPath></g><g id="c2-s-g9" clip-path="url(#c2-u-eskkwh4dlrc20)"><g id="c2-s-g10"><path id="c2-s-path6" d="M165.839844,277.320312h28.996094v57.992188h-28.996094Zm0,0" fill="#73e09a"/></g><clipPath id="c2-u-eskkwh4dlrc20"><path id="c2-s-path7" d="M165.839844,277.320312h28.332031v57.613282h-28.332031Zm0,0"/></clipPath></g><g id="c2-s-g11" clip-path="url(#c2-u-eskkwh4dlrc25)"><g id="c2-s-g12"><path id="c2-s-path8" d="M214.882812,277.320312h28.996094v57.992188h-28.996094Zm0,0" fill="#73e09a"/></g><clipPath id="c2-u-eskkwh4dlrc25"><path id="c2-s-path9" d="M214.882812,277.320312h28.332032v57.613282h-28.332032Zm0,0"/></clipPath></g><g id="c2-s-g13"><g id="c2-s-g14" transform="translate(.000001 0)"><g id="c2-s-g15" transform="translate(133.318 219.919)"><path id="c2-s-path10" d="M39.03125,-15.953125c0,4.011719.46875,6.921875,1.40625,8.734375s2.75,3.09375,5.4375,3.84375s6.910156,1.125,12.671875,1.125c.375,0,.5625.375.5625,1.125s-.1875,1.125-.5625,1.125c-5.136719,0-9.140625-.0625-12.015625-.1875L30.203125,-0.375l-13.5.1875C14.328125,-0.0625,11.070312,0,6.9375,0c-.375,0-.5625-.375-.5625-1.125s.1875-1.125.5625-1.125c4.257812,0,7.328125-.3125,9.203125-.9375s3.15625-1.8125,3.84375-3.5625s1.03125-4.566406,1.03125-8.453125v-86.875c0-3.75-.34375-6.5-1.03125-8.25s-2-2.96875-3.9375-3.65625c-1.9375-.695313-4.976563-1.046875-9.109375-1.046875-.375,0-.5625-.375-.5625-1.125s.1875-1.125.5625-1.125l9.765625.1875c5.5.25,9.9375.375,13.3125.375c2.882813,0,6.390625-.1875,10.515625-.5625c1.5-.125,3.53125-.25,6.09375-.375s5.597656-.1875,9.109375-.1875c12.382813,0,22.171875,2.632812,29.359375,7.890625c7.195312,5.25,10.796875,13.320313,10.796875,24.203125c0,7.875-2.039063,14.570312-6.109375,20.078125-4.0625,5.5-9.257812,9.632813-15.578125,12.390625-6.3125,2.75-12.78125,4.125-19.40625,4.125-3.511719,0-6.453125-.3125-8.828125-.9375-.375,0-.5625-.3125-.5625-.9375c0-.375.09375-.75.28125-1.125.1875-.382812.40625-.515625.65625-.390625c2,.511719,4.191406.765625,6.578125.765625c6.5,0,12-2.6875,16.5-8.0625c4.507813-5.382812,6.765625-13.082031,6.765625-23.09375c0-9.882812-2.320312-17.546875-6.953125-22.984375-4.625-5.4375-11.007813-8.15625-19.140625-8.15625-3,0-5.28125.3125-6.84375.9375s-2.65625,1.78125-3.28125,3.46875-.9375,4.34375-.9375,7.96875Zm0,0" transform="translate(.000001 0)" fill="url(#c2-s-path10-fill)"/></g></g></g><g id="c2-s-g16"><g id="c2-s-g17" transform="translate(0 0.000001)"><g id="c2-s-g18" transform="translate(293.033 128.408)"><path id="c2-s-path11" d="M-42.75,17.46875c0-4.386719-.507812-7.574219-1.53125-9.5625-1.03125-1.980469-3.015625-3.382812-5.953125-4.203125-2.945313-.824219-7.570313-1.234375-13.875-1.234375-.414063,0-.625-.414062-.625-1.234375c0-.824219.210937-1.234375.625-1.234375c5.617187,0,9.996094.066406,13.140625.203125l17.890625.203125l14.78125-.203125C-15.691406,0.066406,-12.128906,0,-7.609375,0c.417969,0,.625.410156.625,1.234375c0,.820313-.207031,1.234375-.625,1.234375-4.65625,0-8.007813.335938-10.0625,1.015625-2.050781.6875-3.453125,1.988281-4.203125,3.90625-.757812,1.925781-1.140625,5.007813-1.140625,9.25v95.15625c0,4.101563.382813,7.113281,1.140625,9.03125.75,1.914063,2.1875,3.25,4.3125,4c2.117188.757813,5.433594,1.140625,9.953125,1.140625.417969,0,.625.410156.625,1.234375c0,.820313-.207031,1.234375-.625,1.234375l-10.6875-.203125c-6.019531-.273437-10.878906-.40625-14.578125-.40625-3.15625,0-6.992188.203125-11.515625.609375-1.644531.132812-3.867187.269531-6.671875.40625-2.8125.132812-6.132812.203125-9.96875.203125-13.5625,0-24.28125-2.875-32.15625-8.625-7.882812-5.75-11.828125-14.589844-11.828125-26.515625c0-8.625,2.230469-15.953125,6.6875-21.984375c4.449219-6.023437,10.136719-10.542969,17.0625-13.5625C-74.347656,55.347656,-67.257812,53.84375,-60,53.84375c3.835938,0,7.054688.34375,9.65625,1.03125.40625,0,.609375.335938.609375,1.015625c0,.414063-.097656.828125-.296875,1.234375-.207031.414062-.453125.554688-.734375.421875-2.1875-.554687-4.582031-.828125-7.1875-.828125-7.125,0-13.148437,2.941406-18.078125,8.828125-4.9375,5.894531-7.40625,14.320313-7.40625,25.28125c0,10.820313,2.539062,19.210937,7.609375,25.171875c5.074219,5.957031,12.058594,8.9375,20.953125,8.9375c3.292969,0,5.796875-.34375,7.515625-1.03125c1.710937-.679688,2.90625-1.945312,3.59375-3.796875.679687-1.84375,1.015625-4.757813,1.015625-8.734375Zm0,0" transform="translate(0 0.000001)" fill="url(#c2-s-path11-fill)"/></g></g></g></g></g></svg>
